<?xml version="1.0" encoding="UTF-8" standalone="no"?>
<svg
   xmlns:dc="http://purl.org/dc/elements/1.1/"
   xmlns:cc="http://creativecommons.org/ns#"
   xmlns:rdf="http://www.w3.org/1999/02/22-rdf-syntax-ns#"
   xmlns:svg="http://www.w3.org/2000/svg"
   xmlns="http://www.w3.org/2000/svg"
   xmlns:sodipodi="http://sodipodi.sourceforge.net/DTD/sodipodi-0.dtd"
   xmlns:inkscape="http://www.inkscape.org/namespaces/inkscape"
   width="210mm"
   height="297mm"
   viewBox="0 0 210 297"
   version="1.1"
   id="svg8"
   inkscape:version="1.0.1 (3bc2e813f5, 2020-09-07)"
   sodipodi:docname="fleche_haut.svg">
  <defs
     id="defs2" />
  <sodipodi:namedview
     id="base"
     pagecolor="#ffffff"
     bordercolor="#666666"
     borderopacity="1.0"
     inkscape:pageopacity="0.0"
     inkscape:pageshadow="2"
     inkscape:zoom="0.35"
     inkscape:cx="400"
     inkscape:cy="898.05714"
     inkscape:document-units="mm"
     inkscape:current-layer="layer1"
     inkscape:document-rotation="0"
     showgrid="false"
     inkscape:window-width="1594"
     inkscape:window-height="894"
     inkscape:window-x="0"
     inkscape:window-y="0"
     inkscape:window-maximized="0" />
  <metadata
     id="metadata5">
    <rdf:RDF>
      <cc:Work
         rdf:about="">
        <dc:format>image/svg+xml</dc:format>
        <dc:type
           rdf:resource="http://purl.org/dc/dcmitype/StillImage" />
        <dc:title></dc:title>
      </cc:Work>
    </rdf:RDF>
  </metadata>
  <g
     inkscape:label="Calque 1"
     inkscape:groupmode="layer"
     id="layer1">
    <g
       id="g19"
       transform="rotate(180,96.784838,134.21142)">
      <path
         style="fill:#000000;stroke:#000000;stroke-width:1"
         id="path13"
         d="m 89.327412,30.369862 c -0.04552,3.110751 0.165214,6.208434 0.366072,9.310253 0.32412,5.037706 0.350211,10.087747 0.405392,15.133643 0.44559,9.370284 -0.114281,18.70621 -0.801865,28.045356 -0.69983,10.340385 -1.460582,20.675036 -2.182259,31.015106 -0.617821,14.51704 -1.730237,29.01192 -2.898669,43.49418 -0.806625,11.46857 -1.666145,22.931 -2.515828,34.39641 -0.711589,7.08121 -0.908568,14.19109 -1.288798,21.29046 -0.416918,5.9925 -0.521976,11.99946 -0.677683,18.0026 0.0013,2.59384 -0.169437,5.17611 -0.373592,7.75941 0.686105,3.22844 6.715101,-2.88116 7.111156,-3.11219 0.189921,-0.11078 0.371512,-0.83646 0.502854,-1.04363 0.819661,-1.49689 1.51638,-3.06372 2.130478,-4.65563 0.4625,-1.39103 1.219533,-2.6251 1.885916,-3.91666 0.46374,-0.82565 1.11294,-1.5007 1.708361,-2.22885 0.644335,-0.69373 1.463207,-1.15441 2.182654,-1.76791 0.92125,-1.10946 2.019641,-2.06937 2.889427,-3.21939 0.656339,-1.20085 1.625468,-2.11235 2.667822,-2.9678 0.13618,-0.11223 0.27237,-0.22446 0.40855,-0.33669 0,0 -6.953661,2.80934 -6.953661,2.80934 v 0 c -0.133929,0.11436 -0.267856,0.22871 -0.401785,0.34307 -1.012595,0.90826 -1.831809,1.96843 -2.606543,3.08466 -0.944134,1.0629 -1.900576,2.12564 -2.955962,3.07927 -0.766461,0.58241 -1.55285,1.13627 -2.136251,1.91811 -0.607145,0.74621 -1.219404,1.48253 -1.635294,2.36073 -0.687742,1.28371 -1.315038,2.58665 -1.800172,3.96415 -0.64801,1.58091 -1.380477,3.12695 -2.245122,4.60227 -0.112837,0.23158 -0.209553,0.45412 -0.356804,0.66665 -0.0628,0.0906 -0.30857,0.30416 -0.209315,0.25614 2.17279,-1.05121 4.304298,-2.18569 6.456445,-3.27854 0.02569,0.0728 0.02318,0.16319 0.07705,0.21854 0.03572,0.0367 -0.0089,-0.10204 -0.01331,-0.15306 0.03505,-2.55359 0.2188,-5.10573 0.135197,-7.66206 0.07375,-5.99412 0.275735,-11.98447 0.658302,-17.96749 0.333306,-7.04876 0.504049,-14.10599 1.033983,-21.14498 0.395267,-5.53426 0.939456,-11.06059 1.303721,-16.59635 0.388549,-5.90483 0.524801,-11.82791 1.068031,-17.72351 1.1128,-14.51374 2.138174,-29.03385 3.025169,-43.56335 0.746254,-10.35819 1.612529,-20.707728 2.293797,-31.070275 0.339378,-4.852204 0.764207,-9.71918 0.884722,-14.583304 0.112212,-4.529013 -0.09761,-9.066998 0.05857,-13.596445 -0.01704,-5.080614 -0.04182,-10.164641 -0.293896,-15.239989 -0.214895,-3.101906 -0.381609,-6.203715 -0.249896,-9.314132 0,0 -6.656951,3.391887 -6.656951,3.391887 z" />
      <path
         style="fill:#000000;stroke:#000000;stroke-width:1"
         id="path15"
         d="m 86.524472,234.29483 c -0.830988,-1.43468 -1.576565,-2.92143 -2.593004,-4.23694 -0.770398,-0.96203 -1.730933,-1.74293 -2.557902,-2.65949 -0.839332,-0.89539 -1.554482,-1.89712 -2.155782,-2.96521 -0.382781,-0.65636 -0.813139,-1.28447 -1.203482,-1.9356 -0.68463,-0.97632 -1.696463,-1.57758 -2.616607,-2.29421 -0.888095,-0.75296 -1.815126,-1.45888 -2.736143,-2.17164 -0.37569,-0.30855 -0.190868,-0.15594 -0.55453,-0.45776 0,0 -6.36986,3.99832 -6.36986,3.99832 v 0 c 0.374645,0.29219 0.18016,0.13399 0.58115,0.47742 0.945049,0.66529 1.852184,1.39608 2.736363,2.13705 0.83253,0.68516 1.803855,1.19076 2.45282,2.07833 0.383373,0.65022 0.821798,1.26991 1.208569,1.91882 0.64135,1.10265 1.390258,2.14262 2.260732,3.07691 0.79512,0.93186 1.716466,1.72378 2.524326,2.63386 1.010893,1.25655 1.771843,2.68145 2.517942,4.10637 0,0 6.505408,-3.70623 6.505408,-3.70623 z" />
    </g>
  </g>
</svg>
