<?xml version="1.0" encoding="UTF-8" standalone="no"?>
<svg
   xmlns:dc="http://purl.org/dc/elements/1.1/"
   xmlns:cc="http://creativecommons.org/ns#"
   xmlns:rdf="http://www.w3.org/1999/02/22-rdf-syntax-ns#"
   xmlns:svg="http://www.w3.org/2000/svg"
   xmlns="http://www.w3.org/2000/svg"
   xmlns:sodipodi="http://sodipodi.sourceforge.net/DTD/sodipodi-0.dtd"
   xmlns:inkscape="http://www.inkscape.org/namespaces/inkscape"
   width="11in"
   height="8.5in"
   viewBox="0 0 279.4 215.9"
   version="1.1"
   id="svg8"
   inkscape:version="1.0.1 (3bc2e813f5, 2020-09-07)"
   sodipodi:docname="upfront.svg">
  <defs
     id="defs2" />
  <sodipodi:namedview
     id="base"
     pagecolor="#ffffff"
     bordercolor="#666666"
     borderopacity="1.0"
     inkscape:pageopacity="0.0"
     inkscape:pageshadow="2"
     inkscape:zoom="0.49497475"
     inkscape:cx="567.92599"
     inkscape:cy="488.02386"
     inkscape:document-units="mm"
     inkscape:current-layer="layer1"
     showgrid="false"
     inkscape:window-width="1034"
     inkscape:window-height="894"
     inkscape:window-x="0"
     inkscape:window-y="0"
     inkscape:window-maximized="0"
     inkscape:document-rotation="0"
     units="in" />
  <metadata
     id="metadata5">
    <rdf:RDF>
      <cc:Work
         rdf:about="">
        <dc:format>image/svg+xml</dc:format>
        <dc:type
           rdf:resource="http://purl.org/dc/dcmitype/StillImage" />
        <dc:title></dc:title>
      </cc:Work>
    </rdf:RDF>
  </metadata>
  <g
     inkscape:label="Calque 1"
     inkscape:groupmode="layer"
     id="layer1">
    <path
       style="fill:#000000;fill-opacity:1;fill-rule:nonzero;stroke:none;stroke-width:0.264583"
       id="path13"
       d="m 149.23452,62.778028 c -1.5367,-0.488484 -3.1216,-0.443018 -4.70405,-0.277958 -1.52972,0.258337 -3.00365,0.794689 -4.33467,1.594554 -5.78024,3.473593 -4.056,1.994649 -6.61829,4.373882 -1.52932,1.576578 -2.65456,3.545742 -2.91656,5.757178 -0.0471,0.397533 -0.0265,0.800187 -0.0398,1.200279 0.29812,2.999687 1.88361,4.071961 4.4508,5.244298 1.98217,0.774515 4.11264,1.179153 6.23766,0.859335 0.40177,-0.06046 0.79395,-0.172992 1.19092,-0.25949 4.00192,-1.431578 7.82949,-3.638624 10.6055,-6.88544 1.10485,-1.362718 1.87658,-2.937803 2.27027,-4.642461 0.0139,-1.411592 -0.89421,-2.486117 -1.76427,-3.504567 -0.75705,-0.725493 -1.34496,-1.594298 -2.00601,-2.401076 -0.31259,-0.501205 -0.76548,-0.820179 -1.26206,-1.113872 -0.35362,-0.20376 -0.75667,-0.270462 -1.14359,-0.380018 l -4.6326,3.17749 v 0 c 0.36023,0.09835 0.72142,0.170458 1.08042,0.271587 0.4681,0.224824 0.89026,0.474987 1.18163,0.92338 0.70507,0.773821 1.30746,1.640252 2.07556,2.358622 0.75991,0.875718 1.61415,1.824077 1.48954,3.061367 -0.39728,1.609386 -1.14862,3.078139 -2.24031,4.33523 -0.75009,0.814165 -0.81822,0.942107 -1.68254,1.65803 -0.32636,0.270319 -1.3935,0.951497 -1.00896,0.773451 1.21226,-0.561274 2.3421,-1.285693 3.51123,-1.932001 0.3634,-0.20089 -0.71841,0.418677 -1.09399,0.595739 -0.3629,0.171076 -0.74505,0.297897 -1.11757,0.446846 -0.38512,0.107223 -0.76374,0.241343 -1.15535,0.321665 -2.05278,0.421042 -4.14147,0.0743 -6.09189,-0.616911 -2.37778,-1.023209 -3.86194,-1.939419 -4.09194,-4.711252 0.0211,-0.370234 0.009,-0.743837 0.0634,-1.110703 0.31419,-2.129324 1.50037,-3.96758 3.02266,-5.437385 2.13521,-1.836521 1.14574,-0.857494 -2.48406,1.008443 -0.35805,0.184063 -0.0746,1.036861 0.28218,0.850398 0.55796,-0.291581 2.44551,-1.931722 3.05329,-2.11839 0.33421,-0.102643 0.48951,-0.378367 0.82843,-0.464142 1.47709,-0.202457 2.9688,-0.311441 4.40519,0.184538 l 4.63981,-3.140646 z"
       sodipodi:nodetypes="scscsccsccccccccscccccsssscsccccssscccs" />
    <path
       style="fill:#000000;fill-opacity:1;fill-rule:nonzero;stroke:none;stroke-width:0.264583"
       id="path15"
       d="m 139.95151,82.747561 c 0.20117,3.349558 0.32797,6.70324 0.50428,10.054238 0.26196,4.254 0.60673,8.498931 1.01077,12.741341 0.3586,3.59838 0.48204,7.20868 0.40467,10.82206 -0.0202,1.85028 -0.19186,3.69406 -0.44988,5.5247 l 4.81844,-2.38147 v 0 c 0.19161,-1.83253 0.30186,-3.67268 0.3086,-5.51601 0.0499,-3.62144 -0.12599,-7.23401 -0.50561,-10.83732 -0.42193,-4.224168 -0.79573,-8.452212 -1.0528,-12.690231 -0.13836,-3.412548 0.21015,-7.538622 0.42587,-10.950583 l -5.62662,1.483794 z"
       sodipodi:nodetypes="ccccccscccccc" />
    <path
       style="fill:#000000;fill-opacity:1;fill-rule:nonzero;stroke:none;stroke-width:0.264583"
       id="path23"
       d="m 153.85349,95.811032 c -1.89394,0.172871 -3.79138,0.283977 -5.69203,0.345527 -2.34636,0.07889 -4.69394,0.09818 -7.0414,0.110863 -2.34765,-0.0062 -4.69531,-0.01426 -7.04293,-0.02797 -1.30433,-0.0049 -2.60858,-0.01585 -3.91282,-0.03147 0,0 -4.46255,3.242125 -4.46255,3.242125 v 0 c 1.33207,-0.01503 2.66416,-0.02551 3.99631,-0.02935 2.37354,-0.01175 4.74711,-0.01654 7.12066,-0.02716 2.3206,0.0051 4.64222,0.03539 6.96218,-0.02928 1.85335,-0.07839 3.70656,-0.16178 5.55827,-0.273426 0,0 4.51431,-3.279841 4.51431,-3.279841 z" />
    <path
       style="fill:#000000;fill-opacity:1;fill-rule:nonzero;stroke:none;stroke-width:0.264583"
       id="path25"
       d="m 150.60471,99.00615 c 2.45324,-1.195351 4.1392,-1.567235 6.34547,-3.162649 2.02033,-1.052803 -0.49112,-0.757883 -4.14686,1.423628 -0.17367,0.103637 0.36246,-0.179551 0.54362,-0.269467 0.53201,-0.264052 1.05444,-0.494136 1.61447,-0.692161 1.03194,-0.354359 2.09901,-0.418695 3.17837,-0.357836 0.91313,0.121965 1.7959,0.390319 2.70251,0.549852 l 4.55892,-3.210002 v 0 c -0.93962,-0.115273 -1.85204,-0.353689 -2.77793,-0.544991 -1.11215,-0.108254 -2.21094,-0.157554 -3.29626,0.178361 -0.77575,0.226838 -1.48847,0.505264 -2.19553,0.900742 -5.19766,2.907199 -3.10542,1.418989 -5.23995,2.797556 -0.40224,0.288306 -1.2814,1.009629 -1.69424,1.282131 0,0 1.69445,0.02325 1.81812,-0.04644 2.90124,-1.634865 -1.97421,0.201696 -3.83801,1.299156 z"
       sodipodi:nodetypes="ccssccccsccscsccc" />
    <path
       style="fill:#000000;fill-opacity:1;fill-rule:nonzero;stroke:none;stroke-width:0.264583"
       id="path27"
       d="m 131.22424,96.784511 c -0.59617,-0.482767 -1.17431,-0.991079 -1.72202,-1.528522 -0.45027,-0.545235 -0.9809,-0.940372 -1.62731,-1.218607 -0.77567,-0.270455 -1.60227,-0.331219 -2.40815,-0.46949 0,0 -4.56118,3.204916 -4.56118,3.204916 v 0 c 0.7827,0.115536 1.56773,0.221194 2.34245,0.375698 0.60582,0.196212 1.0891,0.530749 1.49665,1.027094 0.54285,0.538916 1.1424,1.017968 1.698,1.543613 0,0 4.78156,-2.934702 4.78156,-2.934702 z" />
    <path
       style="fill:#000000;fill-opacity:1;fill-rule:nonzero;stroke:none;stroke-width:0.264583"
       id="path29"
       d="m 141.98244,120.70832 c 2.10728,2.09148 3.97409,4.39599 5.77847,6.74791 1.40167,2.04146 3.08363,3.86543 4.54763,5.85845 l 4.65983,-2.78656 v 0 c -1.63324,-1.86464 -3.34192,-3.66805 -4.72986,-5.73314 -1.78057,-2.3624 -4.22211,-4.91317 -6.0464,-7.23992 z"
       sodipodi:nodetypes="ccccsccc" />
    <path
       style="fill:#000000;fill-opacity:1;fill-rule:nonzero;stroke:none;stroke-width:0.264583"
       id="path31"
       d="m 146.38613,118.96394 c -1.84484,0.88724 -3.65912,1.83454 -5.45527,2.81613 -3.38706,1.91746 -6.75933,3.86338 -10.05455,5.93287 -0.95674,0.56429 -1.32909,1.00226 -1.79686,1.99307 -0.48411,1.08478 -0.89815,2.2008 -1.28022,3.32566 -0.0455,0.15691 -0.0911,0.31383 -0.1366,0.47074 0,0 5.0144,-2.37739 5.0144,-2.37739 v 0 c 0.0438,-0.14781 0.0876,-0.29563 0.1314,-0.44344 0.37283,-1.11056 0.78275,-2.21479 1.33647,-3.24959 0.46326,-0.75872 1.08933,-1.26026 1.85357,-1.71103 0.68763,-0.44493 1.38151,-0.87193 2.08342,-1.29405 0.31146,-0.1873 1.24979,-0.74223 0.93203,-0.56582 -1.57601,0.87495 -5.40845,3.09761 -2.21353,1.24802 1.70662,-0.93433 3.42434,-1.86468 5.20856,-2.64205 0,0 4.37718,-3.50312 4.37718,-3.50312 z" />
    <path
       style="fill:#000000;fill-opacity:1;fill-rule:nonzero;stroke:none;stroke-width:0.264583"
       id="path33"
       d="m 134.70229,32.576881 c -1.53711,-1.131277 -2.14929,-2.945474 -2.63138,-4.710613 -0.2333,-1.329917 -0.28865,-2.746775 0.0392,-4.071422 0.16929,-0.684031 0.33711,-0.895689 0.66954,-1.489835 0.15308,-0.204503 0.28269,-0.428888 0.45924,-0.61351 0.60144,-0.628945 1.8007,-1.227074 1.44633,-1.002805 -1.18009,0.746833 -2.46766,1.339491 -3.5582,2.211882 -0.35999,0.287978 0.87233,-0.300999 1.3178,-0.419661 0.51185,-0.136343 1.03419,-0.229724 1.55128,-0.344586 3.36313,-0.664163 6.78914,-0.880239 10.20748,-1.016056 1.86521,-0.04976 3.7555,0.09986 5.40777,1.022202 1.04689,0.664149 1.55701,1.675464 1.83939,2.842341 0.24055,1.091863 -0.1521,2.139281 -0.6293,3.109135 -0.73561,1.525751 -1.914,2.742559 -3.10001,3.922733 -1.43128,1.363353 -3.17487,2.328138 -4.8722,3.315917 10.23386,-5.918768 -0.96628,0.546466 -1.44431,0.828477 -0.1868,0.110202 -0.92,0.644607 -1.09328,0.813104 -0.32606,0.31708 -0.57057,0.711428 -0.82642,1.082032 -0.68333,1.123577 -0.97403,2.382396 -1.22038,3.65656 0,0 4.9266,-2.388433 4.9266,-2.388433 v 0 c 0.25495,-1.221454 0.60102,-2.414934 1.34265,-3.441713 0.42804,-0.517015 0.84029,-0.933231 1.39717,-1.312995 0.18888,-0.128804 0.77621,-0.482965 0.57712,-0.370591 -0.27668,0.156159 -12.78639,7.365981 1.42441,-0.823079 1.68772,-1.007534 3.40043,-2.015578 4.78639,-3.431662 1.21597,-1.24057 2.39292,-2.540976 3.11605,-4.142769 0.45989,-1.108658 0.80121,-2.250993 0.47564,-3.450588 -0.35324,-1.282657 -0.96102,-2.434194 -2.09311,-3.197624 -1.79358,-1.0819 -3.67176,-1.211993 -5.73321,-1.172517 -3.43992,0.168914 -6.88344,0.420204 -10.28562,0.972542 -4.005,0.722115 -3.69714,0.973721 -8.56864,3.706658 -0.7971,0.447177 -1.40147,1.10612 -1.83222,1.902478 -0.83088,1.926073 -0.86568,3.829092 -0.45684,5.877019 0.52814,1.880045 1.21877,3.713732 2.61557,5.135076 0,0 4.74551,-2.997697 4.74551,-2.997697 z" />
    <path
       style="fill:#000000;fill-opacity:1;fill-rule:nonzero;stroke:none;stroke-width:0.264583"
       id="path59"
       d="m 138.79809,51.988897 c 3.24122,-0.01633 2.81591,-0.633326 7.0156,-3.05901 0.32817,-0.473204 0.21322,-0.947137 -0.15309,-1.349163 -0.40528,-0.310568 -0.91824,-0.317598 -1.40645,-0.34794 -0.47237,-0.07832 -0.92534,-0.213686 -1.40653,-0.158689 -1.94051,0.824851 -0.78852,0.325344 -5.17135,2.995763 -0.13315,0.08113 -0.1599,0.347943 -0.15181,0.468524 0.0103,0.153667 0.099,0.376529 0.15094,0.523081 0.30464,0.413994 0.56284,0.852133 0.83483,1.286164 0,0 4.84123,-2.822345 4.84123,-2.822345 v 0 c -0.24829,-0.384802 -0.44862,-0.799349 -0.74183,-1.156243 -0.0493,-0.275015 0.3787,-0.423513 0.28698,-0.37108 -5.12328,2.9289 -6.18482,3.505459 -4.45576,2.5635 0.37215,-0.348731 0.77237,-0.2179 1.22949,-0.104193 0.39848,0.09375 0.80568,0.06924 1.21285,0.105505 0.25718,0.04269 -0.19152,0.411935 -0.28483,0.41343 1.52786,-0.867375 3.05433,-1.737225 4.5836,-2.602127 0.091,-0.05148 -0.17293,0.120026 -0.26879,0.161825 -0.5002,0.218075 -1.04901,0.175689 -1.57859,0.157043 0,0 -4.53649,3.295955 -4.53649,3.295955 z" />
    <path
       style="fill:#000000;fill-opacity:1;fill-rule:nonzero;stroke:none;stroke-width:0.264583"
       id="path77"
       d="m 122.10904,199.57814 c -0.0693,-1.5853 -0.0205,-3.17231 -0.0463,-4.75818 -0.0854,-0.95913 -0.50893,-1.61567 -1.37999,-2.00046 -0.6756,-0.22542 -1.39311,-0.2276 -2.09746,-0.234 -0.76776,0.003 -1.53544,0.0143 -2.30321,0.0179 -0.88331,0.01 -1.76666,7.9e-4 -2.64997,0.007 -2.22379,0.0498 -4.45232,0.0963 -6.65953,-0.21147 -1.65911,-0.40555 -2.69518,-1.22933 -3.79331,-2.46671 -0.56948,-0.61081 -1.01362,-1.32757 -1.60287,-1.92033 -0.46198,-0.47521 -1.05983,-0.56752 -1.690626,-0.62413 -1.496971,0.0703 -2.991107,0.19544 -4.488916,0.26481 -0.900007,0.0414 -1.800751,0.0604 -2.701613,0.0668 -0.954759,0.003 -1.90949,0.009 -2.864228,0.0158 -1.351476,0.0123 -2.702996,10e-4 -4.05443,-0.0105 -2.13573,0.10153 -3.894069,1.29485 -4.738137,3.17132 -0.357074,0.93974 -0.850098,1.78045 -1.511004,2.53437 -0.237519,0.25114 -0.495567,0.54601 -0.774353,0.75581 -0.13747,0.10346 -0.586692,0.35963 -0.438153,0.27281 4.239176,-2.47758 2.761012,-1.48894 1.594258,-1.11989 -0.681358,0.18561 -1.389052,0.19665 -2.090021,0.2022 -0.978416,0.006 -1.956829,2.7e-4 -2.935226,-0.006 -0.788482,-0.006 -1.576978,-0.009 -2.365478,-0.011 -0.632791,-0.0274 -1.240812,-0.0167 -1.846109,0.17764 -2.901847,1.60936 -3.38954,1.4676 -4.752539,3.76954 -0.385215,0.76927 -0.775745,1.60737 -0.750099,2.48515 0.187666,0.85162 0.545648,1.64709 0.883129,2.44623 0.262932,0.66941 0.417759,1.37437 0.687086,2.04086 0.306938,0.66128 0.862655,0.81628 1.536099,0.89263 0.981136,0.0522 1.964489,0.0502 2.946742,0.0445 0.991166,-0.0388 1.955294,-0.20641 2.890961,-0.53031 2.287612,-0.79411 4.153062,-2.21897 5.795608,-3.9161 0.372293,-0.37751 0.766421,-0.7406 1.220592,-1.01883 0.106995,-0.0655 0.107794,-0.0642 0,0 -2.588533,1.54215 -1.122025,0.83361 -0.443049,1.11691 0.847206,-0.24518 0.877885,0.32893 1.629246,0.66822 0.57826,0.32031 0.398228,0.4906 0.938762,0.87292 0.66607,0.5032 1.508979,0.49951 2.300906,0.60636 0.788543,0.14141 1.586926,0.22441 2.363893,0.42257 0.839777,0.26211 1.721814,0.27444 2.593041,0.30255 1.132716,0.0354 2.266003,0.0272 3.399073,0.0279 1.035037,0.0485 2.057361,-0.0248 3.083153,-0.15168 1.14028,-0.23258 2.300203,-0.34282 3.446612,-0.53338 0.76522,-0.1365 1.50274,-0.37114 2.20645,-0.69876 1.43554,-0.75938 2.82937,-1.61004 4.20304,-2.46898 0.38335,-0.2397 0.74382,-0.61792 1.09044,-0.91106 -0.50604,0.19107 1.41539,-0.93387 0.87014,-0.61092 -4.32374,2.56103 -2.93469,1.61774 -1.70684,1.17857 0.76441,-0.23732 1.5116,-0.43406 2.28387,-0.16296 0.59163,0.30566 0.98471,0.80152 1.34579,1.34265 0.28592,0.44398 0.51904,0.91255 0.87673,1.30429 0.47012,0.42328 1.05019,0.67772 1.65048,0.85402 0.7079,0.17667 1.43869,0.18882 2.16368,0.20484 1.80784,0.11555 3.28689,-1.16035 4.69837,-2.2087 l -3.10769,1.22395 v 0 c -1.20814,0.79506 -0.1738,0.10408 2.23385,-1.24645 0.0774,-0.0434 -0.14106,0.10952 -0.22003,0.1501 -0.27773,0.14272 -0.59376,0.12123 -0.89511,0.11917 -0.70554,-0.007 -1.41578,-0.0116 -2.11179,-0.14175 -0.55625,-0.13065 -1.0834,-0.34487 -1.5362,-0.70089 -0.34864,-0.37573 -0.5795,-0.8271 -0.85646,-1.25594 -0.3976,-0.59381 -0.83903,-1.12948 -1.46102,-1.50347 -0.87226,-0.40997 -1.52397,-0.27409 -2.43204,-0.0206 -1.79868,0.52466 -3.44098,1.54724 -4.89061,2.72511 -0.2002,0.1679 -0.47648,0.40158 -0.67799,0.56197 -0.13442,0.10699 -0.56002,0.39461 -0.40746,0.31561 4.6157,-2.39009 2.48712,-1.44047 1.49083,-0.83993 -0.66393,0.39044 -1.4057,0.61028 -2.15409,0.7792 -1.12949,0.26249 -2.30635,0.28827 -3.437643,0.5567 -1.021834,0.12905 -2.035267,0.25074 -3.068759,0.19218 -1.13034,0.001 -2.260835,-7.9e-4 -3.391019,-0.0206 -0.844217,-0.0264 -1.702218,-0.0283 -2.520931,-0.26171 -0.790687,-0.21312 -1.595673,-0.30622 -2.404042,-0.43818 -0.735631,-0.12212 -1.544179,-0.0697 -2.189831,-0.4937 -0.561899,-0.39596 -1.158875,-0.69502 -1.765322,-1.01771 -0.784899,-0.34269 -1.533763,-0.81957 -2.429494,-0.6461 -1.820037,0.30895 -3.673475,1.76844 -5.027043,3.09048 -0.505574,0.50316 -1.0183,0.99705 -1.587162,1.43 -0.162435,0.12362 -0.683164,0.44523 -0.50292,0.34941 3.300828,-1.75466 3.129344,-1.66263 1.968463,-1.17901 -0.918591,0.34139 -1.838378,0.57474 -2.825006,0.62241 -0.973426,0.004 -1.947611,0.0239 -2.92037,-0.0233 -0.546466,-0.039 -1.060196,-0.0392 -1.329672,-0.59122 -0.272836,-0.66468 -0.422394,-1.37399 -0.70576,-2.03605 -0.322823,-0.75683 -0.678871,-1.51646 -0.799126,-2.33776 0.03516,-0.82089 0.401132,-1.59364 0.790778,-2.30204 0.277403,-0.43544 1.994972,-1.0959 2.364608,-1.46245 0.811236,-0.80448 1.57825,-1.5247 -3.272541,1.10716 0.556506,-0.29968 1.14014,-0.30848 1.763239,-0.28242 0.7948,-0.002 1.589603,-0.003 2.384406,-0.004 0.971939,0.001 1.943838,0.006 2.915663,0.0222 0.720051,0.002 1.446197,0.007 2.155209,-0.13728 2.03059,-0.50623 3.936153,-1.67901 5.320808,-3.2418 0.636712,-0.79181 1.098306,-1.678 1.489519,-2.61463 0.156829,-0.30009 0.239517,-0.50003 0.465341,-0.76002 0.0952,-0.1096 0.448586,-0.36164 0.318617,-0.29694 -4.84904,2.41372 -2.937587,1.3794 -1.775243,1.2207 1.359919,-0.0111 2.719935,-0.0218 4.07988,-0.008 0.942282,0.008 1.884601,0.0188 2.826928,0.0147 0.917688,-0.008 1.835292,-0.0279 2.751439,-0.0851 1.476689,-0.084 2.953496,-0.1676 4.428738,-0.27428 0.551276,0.0362 1.120111,0.045 1.544347,0.44756 0.621789,0.55151 1.059127,1.27408 1.634981,1.86961 0.13708,0.15033 0.77299,0.85273 0.89954,0.96917 0.86731,0.79802 1.95746,1.31151 3.07371,1.65238 2.19134,0.31975 4.40608,0.26048 6.61571,0.30023 0.88108,0.006 1.76217,-0.004 2.64327,-5.2e-4 0.76424,-0.003 1.52851,-0.005 2.29273,-0.0131 0.67718,-0.003 1.36359,-0.0184 2.02807,0.13236 0.85374,0.27926 1.10921,0.74991 1.22707,1.63779 0.06,1.59113 0.0362,3.18527 -0.009,4.77654 l 2.98917,-1.52306 z"
       sodipodi:nodetypes="ccccccccccccccccsccccccccccccccscccccccccccsccccccccccssscccccccsccccccccccccsccccccccscccccccsccccccccsccccccccc" />
    <path
       style="fill:#000000;fill-opacity:1;fill-rule:nonzero;stroke:none;stroke-width:0.264583"
       id="path79"
       d="m 119.69751,200.6821 c -0.0901,0.0801 -2.1294,0.84423 -2.21905,0.92479 -0.32766,0.29443 -0.14848,0.60829 -0.51351,0.86665 -0.12536,0.0887 3.02547,-1.32634 3.15878,-1.40258 2.60124,-1.51842 1.51241,-1.21852 0.33215,-0.54858 l -2.59903,2.09997 v 0 c 1.71457,-0.95721 2.95658,-1.51752 4.25219,-3.04421 z"
       sodipodi:nodetypes="csscccscc" />
    <path
       style="fill:#000000;fill-opacity:1;fill-rule:nonzero;stroke:none;stroke-width:0.264583"
       id="path81"
       d="m 109.8847,199.50658 c -1.04878,0.16974 -2.58603,0.45483 -3.61564,0.71642 -1.4799,0.52999 -3.51573,0.95715 -4.17296,2.47351 -0.13283,0.30645 -0.15924,0.5887 -0.21554,0.91585 -0.059,1.15076 0.0906,2.24916 0.72899,3.2216 0.4467,0.55503 1.06771,0.734 1.74539,0.80903 0.6732,0.0683 1.31514,0.0277 1.94802,-0.21412 1.92899,-0.92678 3.57257,-2.00758 5.07956,-3.45716 0.6171,-0.70151 1.1714,-1.46566 1.43482,-2.36989 -0.0286,-0.86182 -0.66507,-1.34551 -1.39257,-1.66579 -0.49992,-0.18892 -1.019,-0.31579 -1.54007,-0.42945 l -2.74566,1.91303 v 0 c 0.50922,0.093 1.01753,0.19944 1.50336,0.38285 0.57532,0.19667 1.21338,0.51884 1.14669,1.22437 -0.30737,0.84597 -0.86181,1.57293 -1.48884,2.21114 -1.02765,0.95115 -4.30521,3.20868 0.62405,0.10969 -0.59123,0.31691 -1.16802,0.40625 -1.83706,0.34332 -0.59081,-0.0282 -1.17158,-0.0885 -1.59752,-0.54849 -0.62289,-0.87799 -0.73557,-1.92316 -0.61197,-2.97762 0.0828,-0.31182 0.10583,-0.52723 0.29407,-0.79095 0.0643,-0.09 0.33352,-0.28488 0.2354,-0.23384 -4.91109,2.55446 -2.88148,1.52984 -1.77934,1.10639 1.01194,-0.26878 2.47138,-0.6983 3.51116,-0.82686 z"
       sodipodi:nodetypes="ccscccccccccscccccccccccc" />
    <path
       style="fill:#000000;fill-opacity:1;fill-rule:nonzero;stroke:none;stroke-width:0.264583"
       id="path81-3"
       d="m 82.034617,201.53537 c -1.04878,0.16974 -2.58603,0.45483 -3.61564,0.71642 -1.4799,0.52999 -3.51573,0.95715 -4.17296,2.47351 -0.13283,0.30645 -0.15924,0.5887 -0.21554,0.91585 -0.059,1.15076 0.0906,2.24916 0.72899,3.2216 0.4467,0.55503 1.06771,0.734 1.74539,0.80903 0.6732,0.0683 1.31514,0.0277 1.94802,-0.21412 1.92899,-0.92678 3.57257,-2.00758 5.07956,-3.45716 0.6171,-0.70151 1.1714,-1.46566 1.43482,-2.36989 -0.0286,-0.86182 -0.66507,-1.34551 -1.39257,-1.66579 -0.49992,-0.18892 -1.019,-0.31579 -1.54007,-0.42945 l -2.74566,1.91303 v 0 c 0.50922,0.093 1.01753,0.19944 1.50336,0.38285 0.57532,0.19667 1.21338,0.51884 1.14669,1.22437 -0.30737,0.84597 -0.86181,1.57293 -1.48884,2.21114 -1.02765,0.95115 -4.30521,3.20868 0.62405,0.10969 -0.59123,0.31691 -1.16802,0.40625 -1.83706,0.34332 -0.59081,-0.0282 -1.17158,-0.0885 -1.59752,-0.54849 -0.62289,-0.87799 -0.73557,-1.92316 -0.61197,-2.97762 0.0828,-0.31182 0.10583,-0.52723 0.29407,-0.79095 0.0643,-0.09 0.33352,-0.28488 0.2354,-0.23384 -4.91109,2.55446 -2.88148,1.52984 -1.77934,1.10639 1.01194,-0.26878 2.47138,-0.6983 3.51116,-0.82686 z"
       sodipodi:nodetypes="ccscccccccccscccccccccccc" />
    <path
       style="fill:#000000;stroke-width:0.264583"
       id="path122"
       d="m 52.882453,82.364523 c -1.744589,0.03247 -3.489693,0.03547 -5.234549,0.03702 -1.758174,1.27e-4 -3.516323,-0.0075 -5.27445,-0.02013 -0.838282,-0.0081 -1.676582,-0.01193 -2.514899,-0.01318 -0.377322,0.05688 -0.44215,0.03348 -0.799287,0.242919 -2.988355,1.752492 -3.331491,1.624732 -4.863907,3.983426 -1.024726,1.77142 -1.734807,3.712999 -2.299973,5.674863 -0.407273,1.409433 -0.440145,2.875455 -0.463865,4.330332 -0.0075,1.87792 0.01482,3.755777 0.0209,5.633657 0.06547,1.97273 -0.117588,3.93766 -0.229483,5.90486 -0.114528,1.84819 -0.313894,3.68844 -0.421582,5.53798 -0.147095,1.45372 -0.348758,2.90011 -0.442029,4.35884 -0.211122,1.18938 -0.317129,2.38827 -0.37342,3.59376 -0.04672,1.4805 -0.05819,2.96208 -0.06453,4.44327 -0.05324,1.40953 -0.01455,2.44641 0.56396,3.74659 0.679457,1.34963 1.559851,2.60034 2.636938,3.66044 0.842687,0.79654 1.86033,0.90659 2.966254,0.95194 2.099865,0.0143 4.199906,0.003 6.29984,0.002 1.58151,-0.0653 3.157583,-0.21545 4.737867,-0.3036 1.097381,-0.0581 2.19632,-0.0632 3.294883,-0.0704 0.905872,0.0159 1.809168,-0.12006 2.697731,-0.28527 1.783789,-0.428 4.161213,-1.06462 4.992331,-2.78468 0.389337,-2.10996 0.281223,-4.29415 0.288282,-6.43326 -0.01392,-2.80126 5e-5,-5.60249 0.01513,-8.40372 0.0089,-1.83209 0.01617,-3.66427 0.0068,-5.49638 0.01416,-1.88659 -0.04674,-3.77487 0.04513,-5.65971 0.127559,-2.21049 0.541065,-4.39165 0.891747,-6.574306 0.354793,-2.036242 0.407654,-4.103913 0.601842,-6.156248 0.146857,-1.231414 0.294656,-2.461178 0.344138,-3.700786 -5.29e-4,-1.097171 -0.268279,-2.141799 -0.618643,-3.170817 -0.296077,-0.779616 -0.666083,-1.518168 -1.191323,-2.167964 -0.464725,-0.495297 -1.074632,-0.633576 -1.722541,-0.704035 -0.599564,-0.0456 -1.201441,-0.03643 -1.80212,-0.02765 -0.878167,0.01394 -1.756492,0.01275 -2.634742,0.0117 -0.5516,3.9e-5 -1.103182,0.0024 -1.654786,0.0011 l -2.702038,1.963206 v 0 c 0.551595,-0.0016 1.103177,7.93e-4 1.65477,-5.3e-4 0.876075,-0.0034 1.752169,-0.0083 2.628252,-0.0047 0.593328,7.94e-4 1.186873,-0.01482 1.780002,0.0058 0.568725,0.03399 1.139098,0.07587 1.580293,0.480481 0.521735,0.602213 0.8631,1.312174 1.14753,2.052613 0.343551,0.988648 0.602141,1.996395 0.570971,3.054205 -0.06345,1.225261 -0.184711,2.445589 -0.30583,3.666321 -0.163798,2.039791 -0.213426,4.091937 -0.56783,6.113136 -0.355899,2.198534 -0.787148,4.395454 -0.907322,6.622904 -0.08524,1.89094 -0.02461,3.78433 -0.04467,5.67674 -0.008,1.8278 0.0019,3.65568 0.02011,5.4834 0.02833,2.79239 0.06229,5.58498 0.02928,8.37752 -0.01614,1.35603 -0.01873,2.71529 -0.106955,4.06923 -0.03239,0.49707 -0.09085,1.25914 -0.218935,1.77161 -0.04304,0.17221 -0.121116,0.33371 -0.181673,0.50057 -0.838052,1.06711 -0.371965,0.39361 2.34289,-1.12512 0.112575,-0.063 -0.22552,0.12669 -0.345019,0.17527 -0.408337,0.16601 -0.849445,0.27281 -1.277808,0.36935 -0.869601,0.19943 -1.774227,0.32662 -2.665031,0.34388 -1.108451,0.003 -2.217314,0.0185 -3.324609,0.0715 -1.589519,0.0858 -3.172859,0.25039 -4.762008,0.34158 -2.088107,0.0183 -4.176889,0.0475 -6.264693,-0.008 -1.01855,-0.0453 -2.003443,-0.0704 -2.819222,-0.76569 -1.086602,-0.99314 -1.943587,-2.21232 -2.580066,-3.5388 -0.485251,-1.16643 -0.559896,-2.37031 -0.500412,-3.62749 0.0011,-1.47614 -0.0036,-2.95308 0.07141,-4.42782 0.07349,-1.20572 0.221178,-2.40014 0.386577,-3.5962 0.09612,-1.44997 0.268925,-2.89213 0.397965,-4.33929 0.107215,-1.84818 0.324702,-3.68635 0.415883,-5.53515 0.116694,-1.97091 0.279186,-3.9411 0.210889,-5.91751 -0.0037,-1.881823 -0.0067,-3.763897 0.01947,-5.645563 0.03646,-1.427956 0.09904,-2.86389 0.489222,-4.247806 0.56025,-1.938076 1.247371,-3.860919 2.329072,-5.575483 0.447365,-0.634994 0.514135,-0.763532 1.049437,-1.306079 0.171598,-0.173918 -0.661772,-0.08765 -0.884265,0.01329 -0.824603,0.374123 -0.44044,0.681707 -1.239439,1.107782 -0.128739,0.06865 -0.743986,0.616417 -0.615226,0.547803 0.101438,-0.05406 1.551082,-1.276063 1.65841,-1.317204 0.8504,-0.0013 1.700784,-0.0051 2.551149,-0.01318 1.776601,-0.01249 3.553219,-0.02024 5.329867,-0.02013 1.710884,0.0016 3.422042,0.0039 5.132642,0.03702 l 2.719356,-1.975729 z"
       sodipodi:nodetypes="ccccscccccccccccccccccccccccccccccccsccccccccccccsscssccccccccccccccccsssscccccc" />
    <path
       style="fill:#000000;stroke-width:0.264583"
       id="path124"
       d="m 42.830953,136.54629 c -0.748945,-2.7e-4 -1.478849,-0.0455 -2.188718,0.21982 -3.041851,1.75537 -3.485631,1.55431 -4.04831,4.36241 -0.121991,0.85533 -0.291261,1.76024 0.130371,2.55189 0.407059,0.55127 1.048345,0.81132 1.675167,1.03104 0.762508,0.21338 1.560941,0.21009 2.341467,0.32016 1.952966,0.41296 3.728844,-0.92159 5.089504,-2.3036 0.87744,-0.93721 1.746083,-1.95892 2.031719,-3.23696 0.03111,-0.9752 -0.736944,-1.33821 -1.45293,-1.79841 -0.558773,-0.29309 -1.021583,-0.70067 -1.474049,-1.13114 -0.506905,-0.52168 -1.150289,-0.5781 -1.833126,-0.6783 0,0 -2.726105,1.91315 -2.726105,1.91315 v 0 c 0.604096,0.11122 1.22551,0.0821 1.701757,0.52855 0.47402,0.43934 0.927354,0.89091 1.522497,1.1731 0.578485,0.3713 1.335069,0.62495 1.255173,1.4332 -0.342659,1.21463 -1.21617,2.18307 -2.095894,3.05431 -1.146974,0.95877 -0.590905,0.44972 2.065115,-1.03735 0.101357,-0.0567 -0.198017,0.12346 -0.305239,0.16815 -0.35511,0.14801 -0.681699,0.0373 -1.047067,-0.009 -0.76617,-0.11611 -1.53887,-0.13787 -2.300021,-0.28087 -0.553317,-0.16254 -1.151143,-0.37112 -1.536771,-0.81756 -0.39679,-0.70145 -0.138896,-1.57457 -0.04753,-2.328 0.112027,-0.50254 0.229362,-0.99861 0.456422,-1.46506 0.60148,-1.2356 2.362909,-1.90041 -2.022279,0.63324 0.661138,-0.37161 1.33717,-0.37018 2.083477,-0.32253 0,0 2.725375,-1.9801 2.725375,-1.9801 z" />
    <path
       style="fill:#000000;stroke-width:0.264583"
       id="path126"
       d="m 46.97227,79.773029 c 1.338763,-0.362461 1.43558,0.629906 2.539814,0.0995 1.151049,-0.194305 2.30759,-0.334235 3.472802,-0.401228 0.788313,-0.0378 1.577674,-0.03965 2.366701,-0.04021 0.704805,-0.05054 1.361654,0.03287 2.035233,0.233987 0.897223,0.297513 1.563444,0.959805 2.181669,1.644504 0.594924,0.662485 0.943647,1.411044 1.13492,2.271027 0.168606,0.921909 0.170876,1.861609 0.181205,2.795395 0.0057,0.858371 -0.01169,1.716651 -0.01,2.574999 0.0032,0.879657 0.0013,1.75928 -0.0049,2.638925 -0.009,0.685466 -0.0031,1.370909 1.29e-4,2.056373 -7.93e-4,0.984435 0.0082,1.968847 0.01818,2.953221 0.0031,1.605656 0.01527,3.211277 0.01717,4.81694 -0.006,1.58198 -0.0067,3.164 -0.01455,4.74597 -0.0033,1.39034 1.27e-4,2.78067 0.0016,4.17101 -0.0029,1.58406 0.0082,3.16809 0.01064,4.75214 0.06749,2.02112 -0.101946,4.03605 -0.225747,6.05139 -0.08235,1.50012 -0.145161,3.00168 -0.168077,4.50395 0.02064,1.34196 0.0092,2.67568 -0.112654,4.01229 -0.12345,1.36793 -0.196737,2.73634 -0.353132,4.10091 -0.117988,1.72736 -0.459049,3.43263 -0.818205,5.12376 -0.26058,1.39069 -0.579459,2.76913 -1.155684,4.06475 -0.467371,1.03623 -1.023898,2.02401 -1.614943,2.99362 -0.458229,0.73755 -1.054677,1.36577 -1.709507,1.92893 -0.96089,0.63859 -2.619674,1.66916 1.877219,-1.06475 0.12882,-0.0783 -0.268095,0.13823 -0.405223,0.20087 -0.35719,0.16317 -0.612648,0.25164 -0.984845,0.39198 -1.227056,0.44818 -2.529449,0.58349 -3.823444,0.67237 -0.947113,0.0536 -1.89607,0.0541 -2.844363,0.0539 -0.673042,-0.002 -1.346044,-0.01 -2.019081,-0.0126 -0.671885,-0.005 -1.343289,0.0169 -2.01401,-0.0258 -0.897422,-0.11677 -1.794254,-0.23078 -2.696999,-0.29723 -0.849662,-0.11213 -1.695971,-0.24239 -2.535404,-0.41514 -0.984541,-0.1817 -1.955665,-0.42496 -2.923577,-0.6785 -0.869082,-0.29106 -1.756323,-0.51921 -2.63194,-0.7883 -0.659903,-0.16589 -1.316154,-0.33909 -1.974593,-0.51026 -0.593913,-0.21913 -1.214078,-0.36584 -1.793801,-0.62064 -0.826564,-0.43703 -1.48377,-1.10176 -2.102718,-1.78862 -0.715137,-0.68411 -1.115843,-1.52794 -1.443804,-2.43963 -0.275329,-0.78327 -0.368527,-1.60495 -0.419031,-2.42817 0.02867,-1.11039 0.391555,-2.15657 0.691191,-3.21345 0.329928,-0.84702 0.595119,-1.709 0.725562,-2.60895 0.09787,-0.83419 0.07139,-1.67571 0.07246,-2.51381 5.29e-4,-0.82823 0.0024,-1.65646 0.0026,-2.4847 5.29e-4,-0.70703 -2.15e-4,-1.41404 -0.0026,-2.12106 0.0373,-0.89406 0.202567,-1.77875 0.268719,-2.674 0.0747,-1.29986 0.08176,-2.60221 0.08894,-3.9038 0.0044,-0.97284 0.01897,-1.9456 0.02334,-2.91844 0.03745,-0.99286 0.194127,-1.97854 0.260609,-2.97237 0.04084,-1.18057 0.270026,-2.34116 0.491667,-3.49752 0.169022,-1.08362 0.368663,-2.16253 0.51525,-3.24953 0.140242,-1.44686 0.176347,-2.89793 0.309674,-4.34578 0.108836,-1.17787 0.191703,-2.35302 0.386855,-3.519388 0.187304,-0.999588 0.392832,-1.994271 0.530661,-3.003082 0.05517,-0.872088 0.237594,-1.726306 0.357542,-2.590445 0.04697,-0.962256 0.149202,-1.912147 0.287534,-2.865091 0.07714,-0.87339 0.13508,-1.739564 0.273627,-2.605014 0.0837,-0.870016 0.336393,-1.706943 0.460171,-2.570107 0.167306,-0.711517 0.330311,-1.380294 0.764516,-1.975548 0.825762,-0.798428 1.551101,-1.691664 2.451327,-2.4096 0.960451,-0.69904 1.850819,-1.51461 2.885676,-2.103948 -4.85307,2.818138 -2.361414,1.209786 -1.067507,0.916786 0.708573,-0.123391 1.431679,-0.112657 2.148409,-0.116004 0.724488,0.0016 1.448972,0.0045 2.173454,0.0077 0.56224,0.01453 1.127215,-0.043 1.679763,0.07826 0.489178,0.08796 0.943835,0.277188 1.400194,0.466453 0.4328,0.208137 0.890828,0.332803 1.364146,0.401277 0.471186,0.0499 0.94592,0.04794 1.41917,0.04953 0.291965,-0.01228 0.573481,-0.0046 0.858869,0.05585 l 2.780072,-1.892308 v 0 c -0.305689,-0.1254 -0.582236,-0.177269 -0.914958,-0.142703 -0.465045,0.0016 -0.930553,0.0058 -1.3951,-0.0195 -0.452708,-0.03749 -0.897276,-0.117465 -1.311275,-0.314582 -0.461058,-0.21477 -0.932133,-0.414052 -1.431761,-0.51317 -0.574543,-0.163256 -1.141492,-0.15861 -1.73827,-0.137697 -0.727485,-1.48e-4 -1.454963,-0.0038 -2.182448,-0.0031 -0.723709,2.48e-4 -1.450665,-0.01712 -2.171493,0.05676 -1.750534,0.264808 -3.20353,1.545064 -4.721728,2.309662 -0.989671,0.649978 -1.900444,1.416394 -2.837627,2.138079 -0.878705,0.774867 -1.681835,1.638896 -2.456228,2.516799 -0.3835,0.645816 -0.541131,1.367237 -0.692388,2.098318 -0.149323,0.857311 -0.363728,1.702234 -0.459769,2.568805 -0.141438,0.86701 -0.161176,1.741411 -0.272571,2.612366 -0.128386,0.952905 -0.195434,1.907947 -0.287398,2.864419 -0.124638,0.862618 -0.294656,1.718432 -0.351343,2.589622 -0.135276,1.006957 -0.357431,1.995152 -0.534548,2.994491 -0.188302,1.1653 -0.208995,2.34509 -0.332103,3.51842 -0.134682,1.44768 -0.169293,2.9011 -0.345084,4.34473 -0.165035,1.07998 -0.351226,2.15649 -0.523287,3.23525 -0.230191,1.16558 -0.418795,2.34152 -0.471018,3.53054 -0.08426,1.0058 -0.261978,2.00393 -0.284267,3.01281 0.0068,0.9647 0.02366,1.92935 0.01881,2.89411 -0.0095,1.29697 -0.01735,2.59561 -0.117893,3.88942 -0.08666,0.90474 -0.271256,1.8014 -0.279049,2.71085 -0.0021,0.70755 -0.0025,1.41507 10e-4,2.12263 0.0039,0.8249 0.01268,1.64977 0.01356,2.47469 -0.0029,0.82605 -0.0034,1.65582 -0.110731,2.47634 -0.146178,0.87877 -0.426936,1.71813 -0.714971,2.55956 -0.303276,1.08946 -0.666414,2.17911 -0.661803,3.32347 0.05317,0.8535 0.178727,1.69934 0.46535,2.50938 0.33585,0.95347 0.796039,1.82021 1.52299,2.54207 0.63756,0.72347 1.307488,1.42215 2.146168,1.91679 0.584597,0.30405 1.223931,0.4266 1.831139,0.68009 0.661612,0.1495 1.303189,0.36881 1.973392,0.48814 0.883769,0.26617 1.780104,0.48391 2.651699,0.79109 0.971048,0.25167 1.940722,0.51229 2.927977,0.69508 0.84804,0.18067 1.698832,0.31707 2.554547,0.45956 0.90306,0.0502 1.802429,0.142 2.69612,0.2832 0.668068,0.0914 1.338977,0.0649 2.012476,0.0672 0.678974,2.6e-4 1.357948,-0.001 2.036922,2.2e-4 0.960958,0.002 1.922253,-0.002 2.882119,-0.0544 1.304724,-0.08 2.620568,-0.18855 3.872759,-0.58999 1.867175,-0.67206 3.670742,-1.57996 5.224013,-2.83413 0.639535,-0.59285 1.204378,-1.26314 1.651555,-2.01414 0.57625,-0.98349 1.124488,-1.98113 1.57978,-3.02769 0.535297,-1.32168 0.836544,-2.71187 1.10046,-4.11065 0.343056,-1.70656 0.661953,-3.42316 0.821005,-5.15793 0.1568,-1.36687 0.223411,-2.73899 0.350274,-4.10881 0.117094,-1.34594 0.112604,-2.69198 0.116681,-4.04245 0.01527,-1.48868 0.03576,-2.9776 0.122494,-4.46424 0.111197,-2.02348 0.269092,-4.04637 0.229608,-6.0746 0.0024,-1.58766 0.01352,-3.17529 0.01064,-4.76296 0.0016,-1.39091 0.005,-2.78182 0.0016,-4.17273 -0.0079,-1.57703 -0.0086,-3.15412 -0.01455,-4.731156 0.0019,-1.611495 0.01413,-3.222953 0.01717,-4.83444 0.0099,-0.990536 0.01897,-1.981107 0.01807,-2.971702 0.0032,-0.685498 0.009,-1.370978 5.3e-4,-2.056482 -0.0056,-0.878763 -0.0065,-1.757505 0.0019,-2.636258 0.0074,-0.858207 0.0019,-1.716492 -7.94e-4,-2.574713 -0.01,-0.955561 -0.02567,-1.917901 -0.215135,-2.858124 -0.214913,-0.914718 -0.576353,-1.716588 -1.222894,-2.415016 -0.647737,-0.723869 -1.339823,-1.448282 -2.266532,-1.80307 -0.693896,-0.22262 -1.342514,-0.410194 -2.082366,-0.323842 -0.800806,2.2e-4 -1.601716,0.0075 -2.401834,0.04402 -1.180174,0.05833 -2.354498,0.173032 -3.516159,0.397402 -1.345298,0.202684 -2.58312,-0.545981 -3.906108,-0.206016 L 45.5531,79.723499 Z"
       sodipodi:nodetypes="ccccccccccccccccccccccccssccccccccccccccccccccccccccccccccccccccccccccscccccccccccccccccccccccccccccccccccccccccccccccccccccccccccccccccccc" />
    <path
       style="fill:#000000;stroke-width:0.264583"
       id="path154"
       d="m 233.37146,168.02818 c -1.44868,-0.16578 -2.90543,-0.23603 -4.36213,-0.27963 -1.45399,-0.0894 -2.90224,0.009 -4.34891,0.14511 -1.81611,0.30211 -4.07663,1.0477 -4.74823,2.88071 -0.21866,1.04095 -0.15562,2.16621 0.12581,3.19095 0.0806,0.12763 0.13735,0.27399 0.24192,0.38288 0.852,0.88718 3.45456,0.71173 4.5432,0.70919 3.01792,-0.0905 6.03498,-0.19837 9.05388,-0.2525 2.10162,-0.0206 4.17273,-0.31772 6.22099,-0.7666 1.60649,-0.43968 3.2613,-0.57795 4.90947,-0.75506 1.14264,-0.13926 2.28628,-0.2689 3.43505,-0.34426 1.09595,-0.0567 2.1938,-0.0526 3.29085,-0.0494 0.79673,0.003 1.59344,0.01 2.39018,0.0117 1.20128,-0.0441 1.26559,0.0899 1.77367,1.20071 0.57125,1.71606 0.90737,3.4943 1.13599,5.28463 0.10521,0.8591 0.13189,1.72419 0.13268,2.58875 -0.0313,0.76977 -0.037,1.2031 0.64198,1.66632 0.89683,0.41009 1.91599,0.34193 2.87953,0.35749 1.29964,0.0638 2.57562,-0.19655 3.80079,-0.60961 2.32776,-0.89772 4.44445,-2.24921 6.57998,-3.51481 1.108,-1.01686 1.63566,-2.40706 2.00896,-3.82721 0.44124,-1.63256 0.21058,-2.91853 -0.26273,-4.50086 -0.3954,-1.24313 -0.68636,-2.51523 -1.03016,-3.77278 -0.48101,-1.49561 -1.05222,-2.94574 -1.39007,-4.48393 -0.31578,-1.18905 -0.0781,-2.50579 -0.65921,-3.61142 -0.87037,-1.02966 -2.30989,-0.38414 -3.40143,-0.10442 -1.98347,0.48859 -3.92574,1.11654 -5.85521,1.78371 -1.85742,0.67491 -3.68405,1.43086 -5.55691,2.06278 -1.72701,0.5361 -3.41991,1.17329 -5.1328,1.751 -1.31998,0.48133 -2.68078,0.82686 -4.03657,1.18775 -0.97142,0.22098 -1.96001,0.34846 -2.93993,0.52865 -0.80395,0.0917 -1.58795,0.2887 -2.38224,0.4345 -0.80669,0.0718 -1.59888,0.22709 -2.39433,0.37294 -0.57622,0.11113 -1.16144,0.14723 -1.74672,0.16516 -0.57329,0.0183 -1.14709,-0.008 -1.7196,0.0281 -0.40153,0.0575 -0.79755,0.0733 -1.19775,0.13946 l -2.73733,1.92863 0.73968,0.0124 c 0,0 0.11607,-0.005 0.50721,-0.078 0.55939,-0.10188 1.13272,-0.0262 1.69924,-0.0529 0.5974,-0.0101 1.19692,-0.0248 1.78672,-0.13042 0.79891,-0.14147 1.58548,-0.34736 2.39935,-0.38417 0.8045,-0.11293 1.57976,-0.35966 2.3908,-0.43268 0.9899,-0.1788 1.97848,-0.34588 2.96838,-0.51945 1.38134,-0.35038 2.75583,-0.73594 4.10094,-1.20949 1.71384,-0.56443 3.39996,-1.21186 5.12424,-1.74588 1.89455,-0.60834 3.72342,-1.39966 5.59174,-2.08264 1.90962,-0.67199 3.83582,-1.29331 5.80193,-1.77943 0.61881,-0.15151 2.24444,-0.77647 2.85576,-0.44296 0.0974,0.0531 0.16346,0.15002 0.24519,0.22504 0.58838,1.04932 0.30882,2.37138 0.67243,3.50004 0.35111,1.53945 0.92142,2.99927 1.37279,4.50879 0.33166,1.26248 0.644,2.53073 1.05051,3.77224 0.45696,1.53378 0.62298,2.76728 0.17843,4.33811 -0.39843,1.37306 -0.947,2.71006 -2.10865,3.61551 5.05069,-2.7965 0.27324,-0.13579 -0.92416,0.28886 -1.18547,0.46142 -2.45118,0.75085 -3.72967,0.70559 -0.91154,-0.0113 -1.85645,0.0287 -2.73623,-0.24378 -0.62353,-0.31013 -0.45992,-0.75439 -0.47291,-1.3696 -0.0174,-0.86925 -0.0795,-1.73662 -0.21215,-2.59665 -0.2866,-1.80823 -0.66395,-3.60248 -1.17901,-5.36043 -0.44521,-1.08859 -0.6724,-1.65071 -1.92774,-1.5588 -0.80488,3e-5 -1.60975,0.003 -2.41463,0.005 -1.09745,0.004 -2.1952,3e-5 -3.29237,0.0271 -1.17165,0.0576 -2.33357,0.22242 -3.49685,0.36755 -1.65535,0.19447 -3.32918,0.27314 -4.94279,0.73452 -2.04935,0.48448 -4.12558,0.80859 -6.23541,0.85799 -3.02077,0.0837 -6.0407,0.1964 -9.0618,0.2672 -0.84054,-0.002 -3.5251,0.0998 -4.22703,-0.53079 -0.087,-0.0781 -0.13184,-0.1931 -0.19776,-0.28965 -0.26763,-0.9586 -0.33229,-2.0317 -0.0167,-2.98424 0.0649,-0.11248 0.11512,-0.23488 0.19482,-0.33743 0.0708,-0.0911 0.35408,-0.29059 0.25182,-0.23726 -5.03098,2.62361 -2.61541,1.27614 -1.38952,1.05163 1.4509,-0.16292 2.90292,-0.31596 4.36552,-0.21178 1.42527,0.0452 2.8552,0.0925 4.26788,0.30085 l 2.73731,-1.92911 z"
       sodipodi:nodetypes="cccccscccccccccccccccccccccccccccccccsccccccccccscccccccccccccccccccsccscccccc" />
    <path
       style="fill:#000000;stroke-width:0.264583"
       id="path156"
       d="m 229.49127,153.61336 c -2.23105,1.03298 -4.56763,1.79207 -6.91818,2.49715 -1.85264,0.61434 -3.7654,1.04044 -5.57629,1.77509 -1.50652,0.70866 -6.26545,1.29906 -4.91728,3.79219 0.44264,0.81857 3.78558,-3.22048 2.976,-2.76162 -2.89755,1.64231 -1.92704,2.29814 -3.37486,3.21999 l 2.74282,-2.24251 v 0 c 0.1628,-0.0988 -1.15688,1.7943 -1.32256,1.88824 -0.81636,0.4629 -1.44569,-0.31769 -0.6297,-0.78127 10.87473,-6.1781 1.95226,-1.10697 4.00021,-2.51862 0.17405,-0.11997 -2.2388,1.54088 -2.05298,1.44007 1.82437,-0.81107 3.78034,-1.24615 5.66559,-1.89048 2.28833,-0.67919 4.57467,-1.38383 6.76542,-2.34081 z"
       sodipodi:nodetypes="cccssccsssscccc" />
    <path
       style="fill:#000000;stroke-width:0.264583"
       id="path158"
       d="m 211.16054,162.72823 c 0,0 1.3034,2.71844 1.61117,4.1867 0.45754,1.97658 0.67553,3.99005 0.78673,6.01197 0.0549,1.39052 0.0548,2.78266 0.0487,4.17405 -0.0951,1.17186 -0.40406,2.31103 -0.65221,3.45688 -0.35761,1.59279 -0.83328,3.15458 -1.37417,4.69426 -0.41896,1.39715 -0.94007,2.75961 -1.39601,4.14409 -0.1701,0.57579 1.35917,0.58975 1.26198,1.11848 l 1.53986,-1.75114 v 0 c 0.0961,-0.48669 0.0351,-0.22711 0.19233,-0.77651 0.4389,-1.37538 0.919,-2.73747 1.35077,-4.11534 0.53478,-1.55734 1.01851,-3.1327 1.38178,-4.73953 0.26686,-1.16552 0.60334,-2.32817 0.63864,-3.53081 -0.007,-1.3879 -0.025,-2.77564 -0.11535,-4.16122 -0.12595,-2.03466 -0.35825,-4.05632 -0.82522,-6.04478 -0.3113,-1.52684 -0.26827,-4.18189 -1.19109,-5.47326 l -4.57699,2.75077 z"
       sodipodi:nodetypes="sccccccccsccccccccs" />
    <path
       style="fill:#000000;stroke-width:0.264583"
       id="path160"
       d="m 211.44673,190.51466 c 0,0 1.34127,-0.1597 1.55237,-0.2264 1.28832,-0.40706 1.01099,-0.2967 1.28832,-0.40706 1.00048,-0.39833 1.81258,-0.71274 2.84829,-1.00059 1.97369,-0.60693 3.9721,-1.12206 5.97107,-1.63713 1.67404,-0.45348 3.32156,-0.99823 4.99434,-1.45625 0.80155,-0.23721 1.60164,-0.47905 2.40667,-0.70415 l 1.64737,-1.70656 v 0 c 0,0 -0.65274,0.15323 -1.45172,0.41185 -1.68479,0.4593 -3.34081,1.01621 -5.02334,1.48311 -2.00347,0.5304 -4.01692,1.02346 -5.99395,1.64904 -1.03061,0.28263 -2.05945,0.54695 -3.06591,0.90895 -0.27464,0.0988 -0.56101,0.17347 -0.81865,0.31061 -1.1658,0.62052 -1.71764,-0.069 -2.87451,0.56799 -0.81978,0.45139 -3.32813,1.69922 -2.51722,1.23207 z"
       sodipodi:nodetypes="csscccccscccssscc" />
    <path
       style="fill:#000000;stroke-width:0.264583"
       id="path162"
       d="m 226.60175,155.66596 c 0.32166,1.21263 0.4952,2.45736 0.61766,3.70386 0.21845,1.24863 0.3497,2.50772 0.42238,3.77248 0.0442,0.90186 0.14597,1.81408 0.34145,2.69708 0.15108,0.66488 0.38869,1.29784 0.52654,1.967 0.13967,0.49699 0.0714,0.24973 0.20478,0.74176 l 3.1457,-0.44057 -0.21291,-1.04398 c -0.1008,-0.49427 -0.0671,-0.35381 -0.19547,-0.83495 -0.14652,-0.66596 -0.35961,-1.30938 -0.52407,-1.97025 -0.18622,-0.86499 -0.31143,-1.74916 -0.35585,-2.63271 -0.089,-1.26756 -0.22671,-2.5296 -0.42679,-3.78485 -0.13659,-1.25485 -0.43699,-2.98452 -0.6539,-4.22747 z"
       sodipodi:nodetypes="cccccccscccccc" />
    <path
       style="fill:#000000;stroke-width:0.264583"
       id="path164"
       d="m 228.6767,175.06354 c 0,0 0.48405,1.98275 0.61075,2.99516 0.081,0.68357 0.0922,1.37221 0.0964,2.05968 -0.0402,0.61015 0.0271,1.20435 0.12206,1.80496 0.0961,0.57752 0.11531,1.163 0.12977,1.74705 0.0752,0.61639 0.80426,0.79541 0.87211,1.41269 l 2.29915,-1.10827 -0.12107,-0.52644 c -0.13712,-0.59625 -0.042,-0.68712 -0.082,-1.29792 -0.01,-0.602 -0.0139,-1.20489 -0.13202,-1.79804 -0.0943,-0.58349 -0.13167,-1.16436 -0.10776,-1.75617 -0.009,-0.69798 -0.0252,-1.39752 -0.13378,-2.08866 -0.15556,-1.01521 -0.36977,-2.01774 -0.58868,-3.02082 l -2.48368,0.86412 z"
       sodipodi:nodetypes="sccccccsccccccs" />
    <path
       style="fill:#000000;stroke-width:0.264583"
       id="path166"
       d="m 229.49127,153.61336 c -2.48938,0.2187 -5.37351,-0.44638 -7.86764,-0.29438 -3.24741,0.22467 -6.50384,0.21832 -9.75459,0.3512 -2.8304,0.1659 -5.66315,0.26791 -8.49749,0.33105 -3.61193,0.0708 -7.22478,0.0653 -10.83701,0.0263 -1.44721,-0.0237 -2.89452,-0.0369 -4.34192,-0.0393 -1.33396,0.004 -2.66795,0.004 -4.00192,0.006 -1.91806,0.004 -3.83609,0.0171 -5.75416,0.024 -1.54364,-5.3e-4 -0.78965,0.001 -2.26196,-0.005 l -2.60435,1.89218 v 0 c 1.4864,-0.007 0.72746,-0.005 2.27681,-0.005 1.89599,0.007 3.79194,0.0199 5.68794,0.0241 1.32803,0.002 2.65609,0.002 3.98411,0.007 1.4815,-5.3e-4 2.96293,-0.0108 4.44425,-0.0346 3.62906,-0.0412 7.25828,-0.0536 10.88756,-0.0573 2.8277,-0.0234 5.65303,-0.10329 8.47453,-0.30288 3.26129,-0.1579 6.52917,-0.16114 9.78866,-0.37118 2.42445,-0.13167 4.8198,0.0103 7.24393,-0.12145 l 2.18906,-0.98719 z"
       sodipodi:nodetypes="ccccccccccscccccccccc" />
    <path
       style="fill:#000000;stroke-width:0.264583"
       id="path168"
       d="m 212.56363,160.69493 c -2.5275,0.0718 -5.05649,0.0732 -7.58479,0.0635 -2.14624,-0.0688 -4.28731,-0.23285 -6.43326,-0.30854 -1.79898,-0.0594 -3.5991,-0.0666 -5.39887,-0.0744 -1.29681,-0.0103 -2.59363,-0.0148 -3.89048,-0.0123 -2.23027,0.0125 -4.46041,0.0401 -6.69071,0.0522 -3.13531,0.0879 -6.26952,0.20867 -9.40535,0.27811 -1.22191,0.0307 -2.44414,0.0404 -3.66638,0.0384 -0.43278,-0.001 -0.22209,-2.6e-4 -0.63207,-0.002 l -2.93352,0.0338 -1.21467,0.139 c 0,0 -0.89762,1.83938 -0.45675,1.83617 1.2564,-0.0168 5.05009,-0.0962 6.30565,-0.14485 3.15706,-0.13569 6.31416,-0.28826 9.47397,-0.34096 2.18349,0.0119 4.36682,0.0399 6.5503,0.0501 1.30788,8e-4 2.61573,-0.007 3.92359,-0.013 1.8027,0.001 3.60563,0.006 5.40779,0.0552 2.17193,0.072 4.34086,0.21157 6.51343,0.26398 2.47,-0.009 4.94083,-0.0107 7.40995,0.0635 l 4.36752,-1.70858 z"
       sodipodi:nodetypes="ccccccccccscccccccccc" />
    <path
       style="fill:#000000;stroke-width:0.264583"
       id="path170"
       d="m 176.24744,154.45898 c -1.01113,-0.0168 -1.98856,0.28444 -2.94979,0.56376 -2.00642,0.64424 -3.84383,1.80079 -5.35515,3.26581 -0.74017,0.78228 -1.54862,1.49552 -2.40611,2.14624 -0.58314,0.36813 -0.30306,0.17792 -0.84153,0.56866 l 1.91875,-0.11585 1.07698,-0.0878 c 0.65473,-0.0534 0.3548,-1.199 0.92046,-1.59425 0.84241,-0.67323 1.63786,-1.39755 2.3874,-2.17334 1.15522,-1.07207 2.11845,-1.39228 -1.57002,0.59091 -0.12825,0.069 0.3242,0.11766 0.45389,0.0515 0.28198,-0.14393 0.51841,-0.48188 0.79749,-0.63275 0.92384,-0.27601 1.87238,-0.61356 2.84544,-0.60503 z"
       sodipodi:nodetypes="ccccccsccssccc" />
    <path
       style="fill:#000000;stroke-width:0.264583"
       id="path172"
       d="m 164.25655,162.73882 c 0.27097,1.85459 0.40624,3.72548 0.64766,5.58314 0.22953,1.50485 0.36092,3.01977 0.41952,4.54009 -0.0139,1.44877 0.0917,2.88685 0.21794,4.32853 0.0926,1.01007 0.14672,2.02273 0.165,3.03671 0.01,0.79709 0.0132,1.59416 0.01,2.3913 -0.12643,0.77835 -0.17575,1.57738 -0.36756,2.343 -0.17432,0.56492 -0.27813,1.14213 -0.33149,1.7297 -0.038,0.51357 -0.034,1.02886 -0.0312,1.54343 0.0935,0.44715 -0.15318,1.03389 0.0517,1.45936 0.0543,0.11278 0.15415,0.19727 0.23122,0.29591 1.30326,0.7274 2.97843,0.54345 4.42224,0.55629 2.97031,-0.005 5.94059,-0.003 8.9109,0.009 2.32548,0.002 4.65178,0.0323 6.9762,-0.0459 2.29709,-0.15604 4.57944,-0.45497 6.8623,-0.74439 1.56144,-0.18857 3.1121,-0.4387 4.67964,-0.57592 1.4018,-0.19581 2.80836,-0.33423 4.22139,-0.41284 1.08365,-0.0731 2.14263,-0.30887 3.20498,-0.51799 0.79548,-0.15684 1.60189,-0.23578 2.41092,-0.27161 0.57948,-0.0637 1.12481,0.0368 1.67285,0.2153 0.45154,0.15903 0.84982,0.43606 1.17488,0.78475 0.19756,0.32036 0.40569,0.6336 0.60422,0.95346 l 2.69413,-1.90712 v 0 c 0,0 -0.21853,-0.44784 -0.42143,-0.78791 -0.34802,-0.40039 -0.78867,-0.71713 -1.27644,-0.92628 -0.57224,-0.19487 -1.13549,-0.38701 -1.75026,-0.30908 -0.82706,0.0303 -1.65237,0.0932 -2.46642,0.25081 -1.06407,0.20001 -2.11591,0.45316 -3.19533,0.56558 -1.41575,0.083 -2.83153,0.1885 -4.23361,0.40922 -1.58272,0.14077 -3.15,0.3727 -4.72299,0.59062 -2.28958,0.31331 -4.57885,0.62331 -6.88438,0.79858 -2.32366,0.0913 -4.64942,0.0183 -6.97442,0.0583 -2.96498,0.021 -5.93037,0.0421 -8.89513,-0.013 -1.36865,-0.0348 -2.83276,0.0489 -4.14078,-0.40992 -0.36539,-0.35963 -0.0979,-1.07685 -0.16771,-1.54741 0.004,-0.50548 0.005,-1.01194 0.0497,-1.51585 0.0628,-0.57215 0.18913,-1.13071 0.33413,-1.68743 0.15215,-0.79379 0.24171,-1.60182 0.3297,-2.40467 -0.002,-0.79912 0.007,-1.59849 -0.0183,-2.39733 -0.0368,-1.014 -0.0957,-2.02634 -0.21571,-3.03447 -0.13792,-1.43541 -0.21053,-2.86935 -0.2156,-4.31173 -0.0719,-1.52599 -0.20169,-3.04493 -0.45781,-4.55271 -0.25002,-1.86421 -0.45675,-3.73899 -0.57106,-5.61637 l -2.95336,1.5469 z"
       sodipodi:nodetypes="cccccccccscccccccccccccscccccccccccccccccccccc" />
    <path
       style="fill:#000000;stroke-width:0.264583"
       id="path174"
       d="m 179.8218,166.71563 c -0.67211,-0.39566 -1.41812,-0.61136 -2.17856,-0.75595 -0.70832,-0.14582 -1.38867,0.008 -2.01317,0.36379 -1.09812,0.62571 -2.18383,1.27295 -3.27574,1.90943 -0.98227,0.75059 -1.53181,1.86494 -2.02084,2.97138 -0.52191,1.29719 -0.66952,2.68013 -0.76308,4.06178 -0.10064,1.1276 0.005,1.70124 1.13155,2.0796 1.1287,0.20367 2.28597,0.21493 3.42394,0.0928 0.74354,-0.0592 1.43445,-0.33297 2.07275,-0.70957 3.51112,-2.07154 2.44524,-1.20048 4.0163,-2.57661 1.26772,-1.1353 1.80338,-2.70948 2.35676,-4.26193 0,0 -2.96979,1.38854 -2.96979,1.38854 v 0 c -0.53337,1.53146 -1.13089,3.02854 -2.41703,4.09773 -1.31079,1.05463 -0.71727,0.51903 1.57502,-0.71673 0.1874,-0.10102 -0.36017,0.22792 -0.54841,0.32736 -0.4456,0.23541 -0.92206,0.42755 -1.42768,0.46894 -1.10819,0.15937 -2.22393,0.17121 -3.335,0.008 -1.08428,-0.24417 -0.97101,-0.64536 -0.92848,-1.67657 0.0861,-1.34708 0.25224,-2.69357 0.7965,-3.94402 0.51874,-1.07599 1.09867,-2.14213 2.12856,-2.80923 -0.80184,0.4554 -1.6044,0.90955 -2.40554,1.36619 -0.13872,0.0791 0.27557,-0.16185 0.41829,-0.23347 0.46282,-0.23224 0.92986,-0.39376 1.45175,-0.29084 0.72431,0.10857 1.44724,0.27377 2.07961,0.66084 0,0 2.83229,-1.82118 2.83229,-1.82118 z" />
    <path
       style="fill:#000000;stroke-width:0.264583"
       id="path176"
       d="m 178.21964,167.28361 c 0.31798,1.2932 0.93289,2.47906 1.43449,3.70436 0.5398,1.36889 1.02306,2.76422 1.43646,4.17676 0.36317,1.38196 0.43977,2.81226 0.49016,4.2333 0.003,1.11958 -0.01,2.22728 0.12612,3.33898 -0.0746,0.41924 0.43907,1.78745 0.32953,2.09648 -0.0462,0.13031 -0.43466,0.34081 -0.31906,0.26497 0.7269,-0.47688 1.43656,-0.97954 2.15485,-1.46931 -2.12601,0.34752 -4.25851,-0.0458 -6.33411,-0.50308 -0.83835,-0.17603 -1.64405,-0.44943 -2.44003,-0.75931 0,0 -2.71544,1.8232 -2.71544,1.8232 v 0 c 0.81482,0.31546 1.63785,0.60196 2.49537,0.78275 2.10178,0.45469 4.23151,0.82911 6.39333,0.66184 0.41314,-0.22015 3.52502,-1.03981 3.70261,-2.3523 0.0625,-0.46206 -0.40685,-1.55478 -0.33395,-2.08196 -0.11653,-1.09932 -0.10788,-2.20025 -0.13777,-3.30472 -0.0578,-1.44559 -0.16202,-2.89836 -0.53091,-4.30327 -0.41477,-1.42343 -0.9263,-2.81987 -1.4611,-4.20202 -0.49243,-1.20703 -1.10971,-2.38433 -1.3257,-3.6829 0,0 -2.96485,1.57623 -2.96485,1.57623 z" />
    <path
       style="fill:#000000;stroke-width:0.264583"
       id="path178"
       d="m 190.50376,182.78614 c 0.0587,-0.53256 -0.1202,-1.00731 -0.47919,-1.39158 -2.75421,1.64353 -3.59138,1.45442 -2.07558,2.57222 0,0 2.82722,-1.79924 2.82722,-1.79924 v 0 c -1.50236,-1.01382 0.11537,-1.1655 -3.52435,1.18507 -0.0386,-0.31697 0.44548,0.60469 0.21608,0.88715 0,0 3.03582,-1.45362 3.03582,-1.45362 z" />
    <path
       style="fill:#000000;stroke-width:0.264583"
       id="path184"
       d="m 195.52444,166.83252 c 0.46827,-0.48024 0.8643,-1.02901 1.42252,-1.41129 0.073,-0.034 0.28838,-0.14282 0.21891,-0.10213 -0.91958,0.53864 -1.86907,1.02724 -2.77005,1.59644 -0.0385,0.0243 0.0832,0.0472 0.10511,0.0872 0.0621,0.1134 0.10606,0.23691 0.14061,0.36151 0.13717,0.4946 0.171,0.91939 0.2383,1.43365 0.17344,1.7696 0.18409,3.54956 0.17971,5.32598 -0.008,0.90205 -0.021,1.80402 -0.027,2.70608 -0.008,0.90644 -0.18385,1.804 -0.27813,2.7053 -0.0655,0.84694 -0.0883,1.69627 -0.10391,2.54533 0.006,0.77629 -0.55692,1.14102 -1.09629,1.58716 -0.93618,0.63907 -1.75561,1.18898 2.21518,-1.28357 0.10887,-0.0678 -0.23604,0.10077 -0.35669,0.14428 -0.0685,0.0247 -0.5101,0.0767 -0.44225,0.18776 0.0573,0.0495 0.0996,0.12594 0.17193,0.14845 0.0507,0.0158 0.19739,-0.075 0.15197,-0.0476 -4.73022,2.86184 -3.23092,1.82723 -2.14047,1.29919 0.10504,-0.0509 0.21106,-0.0997 0.31659,-0.14955 0.60531,-0.28146 1.22656,-0.5333 1.87187,-0.70619 0.53695,-0.13164 1.08968,-0.15976 1.63991,-0.17449 0.41353,-0.007 0.82715,-0.003 1.24071,-0.001 0,0 2.7266,-1.97917 2.7266,-1.97917 v 0 c -0.41741,-0.001 -0.83483,-0.005 -1.25224,-0.001 -0.56602,0.009 -1.13517,0.0228 -1.69344,0.12542 -0.66635,0.13962 -1.29556,0.38307 -1.92003,0.65138 -1.17767,0.58614 -3.98399,1.80762 -4.03627,2.35459 -0.0103,0.10828 0.0464,0.21254 0.0696,0.31881 0.22702,0.21568 0.79851,0.0468 1.04531,-0.0866 1.07983,-0.58399 2.13992,-1.20409 3.19769,-1.82714 0.10454,-0.0616 0.19078,-0.14997 0.28617,-0.22495 0.58106,-0.50736 1.02333,-1.03341 0.98452,-1.84951 0.005,-0.83767 0.0205,-1.6765 0.10324,-2.51071 0.0956,-0.9134 0.26715,-1.82236 0.27597,-2.74193 -2.7e-4,-0.89466 -0.005,-1.78935 -0.0258,-2.68381 -0.038,-1.78345 -0.0796,-3.56828 -0.21667,-5.34738 -0.31325,-2.86458 -0.44599,-3.23439 -3.93281,-0.61673 -0.51187,0.45353 -0.9469,0.98554 -1.40263,1.49388 0,0 3.09228,-1.32742 3.09228,-1.32742 z" />
    <path
       style="fill:#000000;stroke-width:0.264583"
       id="path186"
       d="m 211.68363,166.03902 c -1.83734,0.0345 -3.67441,0.0601 -5.51158,0.0124 -1.80476,-0.18912 -3.67225,-0.21415 -5.42494,-0.73395 -0.52665,-0.24835 0.1664,-0.17346 -2.76425,1.79894 -0.052,0.035 0.11428,-0.0565 0.17635,-0.0652 0.22228,-0.0309 0.30463,0.0443 0.5139,0.13331 0.73759,0.58166 1.13387,1.46708 1.46718,2.32241 0.4459,1.02849 0.79189,2.07459 0.9743,3.18044 0.0827,1.07463 0.16983,1.67882 1.21919,2.12553 0.92041,0.20651 1.86872,0.25341 2.80406,0.37745 0.69586,0.0568 1.37073,0.16669 2.02616,0.40708 0.73929,0.37493 1.28395,1.01267 1.75082,1.68101 0.4974,0.78253 0.52722,1.70419 0.57235,2.6023 0.006,1.0472 -0.46893,1.87425 -1.1707,2.60731 -1.44301,0.91531 1.27121,-0.67222 1.80462,-1.14424 0.21234,-0.1879 -0.55008,0.13961 -0.82903,0.19046 -0.86334,0.15738 -1.742,0.20402 -2.6161,0.25534 -1.17337,0.0436 -2.41138,0.0895 -3.50202,-0.40791 0,0 -2.78566,1.84071 -2.78566,1.84071 v 0 c 1.12869,0.55639 2.42564,0.54678 3.65862,0.50098 2.83329,-0.16626 4.97865,-0.30617 7.33234,-2.52494 0.67966,-0.82063 1.08731,-1.74834 1.04797,-2.8354 -0.0537,-0.96396 -0.0921,-1.94283 -0.6443,-2.77405 -0.50543,-0.72018 -1.08915,-1.38837 -1.84042,-1.86208 -0.68003,-0.25938 -1.35693,-0.43583 -2.09333,-0.45348 -0.9165,-0.11644 -1.83128,-0.21907 -2.74759,-0.32551 -1.04184,-0.31875 -0.93105,-0.81674 -1.06923,-1.80979 -0.19787,-1.12656 -0.55441,-2.19302 -0.99458,-3.24884 -0.37757,-0.92654 -0.81621,-1.85743 -1.56931,-2.54016 -0.15795,-0.0934 -0.42728,-0.26943 -0.6146,-0.31936 -1.24763,-0.3325 -4.25317,1.3867 -2.85442,2.17498 1.82828,0.45408 3.72984,0.50923 5.59549,0.70566 1.78978,0.0753 3.5804,0.0694 5.37128,0.10286 0,0 2.71743,-1.97433 2.71743,-1.97433 z" />
  </g>
</svg>
